<svg width="43" height="40" viewBox="0 0 43 40" fill="none" xmlns="http://www.w3.org/2000/svg">
<g id="&#208;&#186;&#208;&#190;&#209;&#128;&#208;&#183;&#208;&#184;&#208;&#189;&#208;&#176; ">
<g id="Group">
<path id="Vector" d="M0.0997652 9.4C-0.100235 8.6 0.399765 7.8 1.19977 7.6C2.29977 7.4 2.69977 7.8 3.19977 9.5C4.29977 13.3 5.29977 17.2 6.49977 21C6.89977 22.4 7.59977 22.1 10.1998 22.1C14.6998 22.1 19.2998 22.1 23.1998 22.2C25.2998 22.3 25.7998 21.8 26.3998 19.4C26.8998 17.6 27.4998 16 27.9998 14.1C28.8998 10.8 29.8998 7.5 31.0998 4.2C31.2998 3.7 32.2998 2.9 32.7998 2.7C34.6998 1.9 36.3998 1.4 38.2998 0.600005C38.6998 0.400005 39.1998 0.300005 39.5998 0.200005C39.7998 0.200005 39.9998 0.100005 40.1998 0.100005C40.7998 4.72367e-06 41.4998 0.300005 41.7998 0.900005C42.2998 2 41.7998 2.7 40.1998 3.3C38.4998 3.9 36.5998 4.6 34.8998 5.4C34.2998 5.70001 33.6998 6.3 33.5998 6.8C32.0998 11.3 30.7998 15.9 29.3998 20.5C28.3998 23.9 27.2998 27.4 26.2998 30.9C25.5998 32.6 23.6998 32.2 21.4998 32.2C16.0998 32.2 12.2998 32.3 6.89977 32.3C5.09977 32.3 3.89977 31.9 3.99977 30.9C3.99977 30 4.79977 29.5 5.99977 29.5C11.6998 29.5 17.3998 29.5 23.2998 29.5C23.6998 28.2 24.0998 26.9 24.4998 25.4C23.8998 25.4 23.3998 25.4 22.9998 25.4C17.4998 25.4 12.0998 25.4 6.59977 25.4C4.79977 25.4 4.29977 25 3.89977 23.2C2.79977 19.2 1.79977 15.3 0.699765 11.3C0.599765 11.1 0.199765 9.6 0.0997652 9.4Z" fill="black"/>
<path id="Vector_2" d="M3.19971 40C3.19971 40 3.39971 36.1 7.39971 36C11.3997 35.9 11.7997 40 11.7997 40H9.59971C9.59971 40 9.49971 38.2 7.59971 38.2C5.69971 38.2 5.39971 40 5.39971 40H3.19971Z" fill="#020202"/>
<path id="Vector_3" d="M18.2998 39.9C18.2998 39.9 18.4998 36 22.4998 35.9C26.4998 35.8 26.8998 39.9 26.8998 39.9H24.6998C24.6998 39.9 24.5998 38.1 22.6998 38.1C20.7998 38.1 20.4998 39.9 20.4998 39.9H18.2998Z" fill="#020202"/>
</g>
</g>
</svg>
