<svg xmlns="http://www.w3.org/2000/svg" width="10417" height="2950" viewBox="0 0 10417 2950">
  <defs>
    <style>
      .cls-1 {
        fill: none;
        stroke: #fff;
        stroke-linejoin: round;
        stroke-width: 83.82px;
        fill-rule: evenodd;
      }
    </style>
  </defs>
  <path class="cls-1" d="M0,0H588c233.482-.006,461.86-10.265,608,72,220.77,124.282,248.31,329.319,324,594q153.99,542.445,308,1085h77q157.485-553.44,315-1107c72.94-250.328,100.05-444.855,307-565C2678.45-8.924,2911.69,0,3157,0h578V2950H2807V1200l-78,3q-269.97,873.42-540,1747-322.47-.495-645-1-269.97-874.92-540-1750H927V2950H0V0ZM4133,0h928V1751h77q276.975-608.445,554-1217c89.14-200.344,159.75-402.355,360-492C6162.98-7.681,6335.96,0,6502,0h567V2950H6141V1199q-38.49.495-77,1-272.97,611.445-546,1223c-88.42,199.46-155.05,391.94-354,481-123.87,55.45-292.59,46-475,46H4133V0ZM7350,0H8876c284.1-.006,617.36-22.635,837,45,280.31,86.315,496.5,281.316,610,535,72.2,161.268,123.2,404.58,74,631H9204c-269.41.01-558.16,12.95-768-46-485.07-136.27-819.73-440.246-1003-878C7395.76,198.045,7375.98,102.977,7350,0ZM8409,2010v940H7481V1339q1438.86,0.495,2878,1c-38.4,136.76-123.6,246.34-205,342-125.5,147.45-306.79,255.26-528,306-131.55,30.18-306.11,22-467,22H8409Z"/>
</svg>
