<svg width="23" height="21" viewBox="0 0 23 21" fill="none" xmlns="http://www.w3.org/2000/svg">
<g id="search">
<path id="Ellipse 1" d="M17.0369 8.93854C17.0369 13.8752 13.2231 17.8771 8.51844 17.8771C3.81384 17.8771 0 13.8752 0 8.93854C0 4.00192 3.81384 0 8.51844 0C13.2231 0 17.0369 4.00192 17.0369 8.93854ZM2.14521 8.93854C2.14521 12.632 4.9986 15.6261 8.51844 15.6261C12.0383 15.6261 14.8917 12.632 14.8917 8.93854C14.8917 5.24512 12.0383 2.251 8.51844 2.251C4.9986 2.251 2.14521 5.24512 2.14521 8.93854Z" fill="#737373"/>
<rect id="Rectangle 1" width="10.4725" height="3.02583" rx="1.51291" transform="matrix(0.793124 0.60906 -0.572052 0.820217 14.6943 11.6823)" fill="#737373"/>
</g>
</svg>
