<svg width="68" height="59" viewBox="0 0 68 59" fill="none" xmlns="http://www.w3.org/2000/svg">
<g id="white logo 1">
<path id="Vector" d="M18.0962 20.4328C18.4476 20.2181 18.5062 19.735 18.2231 19.4422C17.4518 18.6467 16.0459 17.1095 16.0801 16.4556C16.1289 15.5625 16.6805 15.138 16.4218 14.4889C16.1631 13.8399 16.1142 12.9419 16.2753 12.5223C16.4364 12.0977 15.7725 11.6292 15.9483 10.7996C16.1289 9.96998 16.5487 9.71133 17.0369 9.80893C17.525 9.90654 18.2231 10.0188 18.5013 9.90654C18.7796 9.79429 19.7071 9.17453 19.9658 8.93052C20.2245 8.68652 20.6834 9.22333 20.6834 9.22333C20.6834 9.22333 23.2364 12.0684 23.4317 11.761C23.6269 11.4535 23.1388 10.8337 23.1388 10.8337C23.1388 10.8337 22.8068 10.4092 22.7971 9.99438C22.7873 9.57957 22.8801 9.41853 22.7385 9.10132C22.6018 8.78412 22.4603 8.61332 22.5188 8.13995C22.5774 7.66659 23.1534 7.89595 23.3487 7.81299C23.544 7.73003 23.8515 7.45674 24.3982 7.66659C24.945 7.87643 26.3509 9.23797 26.3509 9.23797L28.5817 11.3754L29.9632 13.0005C29.9632 13.0005 30.3928 13.5227 31.042 13.6447C31.6913 13.7667 33.7855 12.5223 33.7855 12.5223L41.181 8.85244L48.2934 5.45104L54.8005 2.523C54.8005 2.523 55.9623 1.75683 57.1095 2.5962C58.2567 3.43557 59.438 1.75683 61.0489 1.15658C61.9325 0.824733 62.6452 0.795453 63.1089 0.834493C63.7533 0.888174 64.3049 1.33226 64.4514 1.96179C64.4562 1.98619 64.4611 2.00571 64.466 2.03011C64.6027 2.77188 63.7826 3.07932 63.9681 4.33838C64.1536 5.59744 59.4917 8.99884 59.4917 8.99884C59.4917 8.99884 60.7853 8.06187 61.332 8.35467C61.8788 8.64748 62.1863 9.17453 62.0301 9.68205C61.8739 10.1896 59.8871 12.4637 59.8871 12.4637L58.0175 14.3816L55.9233 16.6069L53.4923 19.1835L50.5926 22.2726L47.4001 25.7375C47.4001 25.7375 45.4377 27.4552 45.633 28.1677C45.8282 28.8851 46.0967 28.4215 46.3994 28.8265C46.702 29.2316 46.619 29.3487 46.829 29.5342C47.0389 29.7196 48.0982 30.0563 48.4887 30.3979C48.8792 30.7395 49.1819 30.7298 49.1721 31.1885C49.1623 31.6423 48.8304 32.5061 48.8304 32.8965C48.8304 33.2869 49.0842 34.1995 48.7572 34.3605C48.4301 34.5216 48.1714 34.6289 47.9615 34.912C47.7516 35.195 48.1079 35.8294 46.829 35.5562C45.55 35.278 45.7208 34.4972 45.1448 34.5557C44.5688 34.6143 44.6957 35.7758 44.6957 35.7758C44.6957 35.7758 44.7299 36.742 45.3206 37.3959C45.9161 38.045 46.9949 38.2256 47.0535 38.8356C47.1121 39.4456 47.0633 40.0458 46.7509 40.2264C46.4433 40.4069 45.6427 40.568 45.2229 40.3386C44.7982 40.1093 44.2808 39.2406 43.5974 39.182C42.914 39.1235 42.4014 40.2703 41.962 40.4118C41.5227 40.5485 41.3274 41.4708 38.9599 41.0804C36.5923 40.69 35.3573 40.1776 33.9563 41.871C32.5553 43.5643 29.2212 48.3273 29.2212 48.3273L25.4136 53.8857C25.0182 54.4615 24.2567 54.6665 23.6416 54.3395C23.6221 54.3298 23.6025 54.32 23.5879 54.3103C22.6946 53.8076 25.1256 51.226 25.1256 51.226L27.1758 48.2736L29.2505 45.2138L31.5107 42.1784L34.0588 38.8453C34.1418 38.738 34.0393 38.5867 33.9075 38.6257C33.9026 38.6257 33.8928 38.6306 33.888 38.6306C33.5121 38.7428 32.4284 40.4313 32.4284 40.4313L30.3635 43.4619L28.0692 46.6095C28.0692 46.6095 26.5949 49.0837 25.9799 49.3765C25.3599 49.6693 24.9694 48.5127 24.5544 49.0593C24.1395 49.6059 22.5774 52.0703 22.5774 52.0703C22.5774 52.0703 21.894 53.305 20.5857 53.9833C19.2775 54.6567 18.6819 55.3497 17.8033 55.1301C16.9246 54.9105 17.7691 53.0707 17.7691 53.0707C17.7691 53.0707 18.145 52.6461 17.7544 51.4115C17.5641 50.8015 17.6715 50.2793 17.8325 49.9084C17.9643 49.6059 17.8521 49.2643 17.5885 49.0739C17.4615 48.9812 17.3493 48.8446 17.3053 48.6591C17.1687 48.0735 18.9895 45.7653 18.9895 45.7653L21.7964 41.8612L24.5447 38.2548C24.5447 38.2548 25.6381 36.8494 25.4038 36.7713C25.1695 36.6883 22.841 36.4687 22.841 36.4687L17.6715 36.3174L12.2188 36.5224C12.2188 36.5224 11.057 36.6054 9.91467 36.254C8.77239 35.9026 9.64619 35.683 8.30376 35.644C6.96133 35.605 5.409 35.8636 4.42293 35.483C3.43686 35.1023 4.48151 33.7652 4.15444 32.6428C3.82738 31.5203 4.83786 30.6273 4.42293 30.2906C4.008 29.9587 2.32386 29.8416 3.02192 29.1535C3.71999 28.4654 4.0861 27.9969 5.56033 27.0941C7.03456 26.1913 10.8324 24.1319 10.8324 24.1319L15.4064 21.6529C15.4113 21.6529 17.1052 21.038 18.0962 20.4328Z" fill="#FCFCFD"/>
<path id="Vector_2" d="M42.3913 34.7168V34.7119C42.3669 34.4288 42.2254 34.1702 41.9959 34.0092L39.3697 32.1547L37.6904 31.3934C37.6904 31.3934 39.2183 31.4569 39.5991 31.535C39.8383 31.5838 40.1263 31.5008 40.302 31.4325C40.4241 31.3837 40.5608 31.369 40.6877 31.3837C41.6396 31.5008 41.6786 31.1592 41.7616 30.9786C41.8251 30.8371 41.6347 30.5248 41.5273 30.3638C41.5029 30.3247 41.5273 30.271 41.5761 30.271C42.0643 30.2417 42.2693 29.5634 42.24 29.1193C42.2107 28.6411 40.9171 26.7135 39.9652 25.8448C39.0133 24.9762 38.6521 24.7273 38.6521 24.7273C38.6521 24.7273 37.6562 23.9562 37.5733 23.8098C37.4903 23.6634 37.7832 22.8777 37.7832 22.8777C37.7832 22.8777 38.4324 21.2575 38.4519 21.0282C38.4568 20.9696 38.4519 20.9159 38.4422 20.872C38.4226 20.7891 38.3104 20.7842 38.2811 20.8671L37.9784 21.7602C37.9784 21.7602 37.3975 23.3169 37.0753 23.5317C36.7532 23.7464 36.6604 23.966 36.6458 24.1465C36.6311 24.3271 37.417 25.1762 37.417 25.1762C37.417 25.1762 36.5677 24.4393 36.3919 24.1709C36.2162 23.9025 36.6262 22.99 36.6262 22.99L37.1095 21.7456L37.6221 20.3547C37.6416 20.2962 37.6172 20.2327 37.5635 20.2083C37.5293 20.1937 37.4903 20.1888 37.4463 20.2327C37.3341 20.3352 37.0753 20.3743 36.8654 20.3401C36.6555 20.3059 36.6555 20.506 36.6555 20.506C36.514 21.2624 36.2699 21.7797 36.2699 21.7797C36.2699 21.7797 36.387 21.2722 36.3382 21.077C36.3187 20.9989 36.2796 20.9355 36.2455 20.8867C36.182 20.8086 36.0746 20.7744 35.977 20.8135C35.9575 20.8183 35.9428 20.8281 35.9331 20.8427C35.894 20.8867 35.6939 21.1111 35.5377 21.2478C35.4986 21.2819 35.44 21.2429 35.4595 21.1941L35.5377 20.9599C35.5377 20.9599 35.5572 20.7598 35.4595 20.75C35.3619 20.7403 35.1178 20.9355 34.8298 21.1258C34.5418 21.3161 33.8633 23.2096 33.8633 23.2096L33.214 24.7858L32.5404 26.0888L31.6812 27.6407C31.6812 27.6407 30.9588 28.9925 30.8465 29.173C30.7977 29.2511 30.744 29.2853 30.6952 29.2999C30.6463 29.3145 30.6024 29.2609 30.6317 29.2169L30.7293 29.051L31.7593 27.0892L32.472 25.7277L33.2433 24.1075C33.2433 24.1075 33.8633 22.6532 34 22.1652C34.1366 21.6821 34.0488 21.565 34.0488 21.565C34.0488 21.565 33.9072 21.3893 33.8486 21.6236C33.7949 21.848 33.3947 22.9753 33.3947 22.9753L32.5648 24.7956L31.7203 26.4207L30.8172 28.0604L30.3437 28.9241C30.2363 29.0901 30.041 29.1779 29.8458 29.1535C25.9796 28.6167 22.3868 29.3926 22.3868 29.3926L28.4887 24.3613C28.4887 24.3613 29.1038 23.8781 29.1428 23.4292C29.1623 23.1949 29.0159 23.151 28.8646 23.1608C28.7914 23.1657 28.7523 23.0778 28.806 23.029C28.9671 22.8777 29.1965 22.6581 29.4015 22.4532C29.7677 22.0872 29.7725 21.6236 29.8409 21.3259C29.9092 21.0282 29.3039 21.1111 28.8841 21.1355C28.4643 21.1599 26.3555 21.7504 25.9893 21.809C25.6232 21.8676 21.2249 23.4487 21.2249 23.4487C21.2249 23.4487 17.9494 24.5174 17.5101 24.6199C17.0707 24.7224 16.3873 25.391 16.031 25.4739C15.6746 25.5569 15.4745 25.6447 15.7137 25.8985C15.8015 25.9912 15.7869 25.796 16.3239 25.7911C16.8608 25.7862 16.7876 26.406 16.7534 26.6939C16.7193 26.9819 16.5435 27.0892 16.773 27.1868C16.9341 27.2551 17.5931 27.0404 17.9641 26.9135C18.0373 26.8891 18.1203 26.8989 18.1789 26.9526C18.213 26.9867 18.3107 27.016 18.5157 27.0209C19.0673 27.0355 22.5918 25.7521 22.5918 25.7521L19.8825 27.7968L17.0073 30.0221C17.0073 30.0221 16.4313 30.4077 16.0896 30.6517C15.7478 30.8957 15.8797 31.086 15.9968 31.3398C16.114 31.5935 16.5777 30.9689 16.9145 31.4666C17.2514 31.9644 16.2897 32.2523 17.1098 32.4719C17.9299 32.6915 20.1266 32.389 20.1266 32.389C20.1266 32.389 23.2557 31.9888 24.9154 31.9205C26.3115 31.8619 27.942 32.0913 28.4252 32.1645C28.4985 32.1743 28.5375 32.2523 28.5082 32.3207L27.2293 35.1365C27.2293 35.1365 26.541 36.7225 26.541 36.9079C26.541 36.9909 26.5995 37.0006 26.663 36.9909C26.7557 36.9714 26.829 36.9079 26.868 36.8201L27.8248 34.6143C27.8248 34.6143 28.5961 33.0575 28.8939 32.4719C28.9915 32.2816 29.0696 32.1694 29.1282 32.1059C29.1819 32.0523 29.2697 32.1108 29.2356 32.1791L28.8743 32.9404L28.0884 34.6972C28.0884 34.6972 27.6442 35.8831 27.4733 36.1515C27.3025 36.4199 27.5661 36.3858 27.6491 36.5175C27.7369 36.6493 27.5954 36.8054 27.6393 37.0982C27.6832 37.391 27.5514 37.6497 27.5026 37.8449V37.8498C27.4782 37.9718 27.61 38.0694 27.7174 38.0059C27.8199 37.9474 27.9664 37.8791 28.1226 37.8449C28.4301 37.7815 28.4643 37.6058 28.845 37.2398C29.2258 36.8738 29.4357 35.8685 29.4357 35.8685C29.4357 35.8685 29.4308 36.0929 29.4064 36.2442C29.3967 36.3077 29.4357 36.3614 29.4894 36.3955C29.5675 36.4492 29.587 36.5517 29.548 36.6395L29.2893 37.2007C29.2356 37.3178 29.2014 37.4398 29.1868 37.5667C29.1721 37.6936 29.2795 37.7961 29.4064 37.7766C29.5431 37.7522 29.6603 37.6643 29.7188 37.5374L30.3193 36.2296L31.4176 34.0043L32.2621 32.2572C32.3012 32.184 32.3939 32.1645 32.4623 32.2084L32.5404 32.2621C32.5843 32.2914 32.599 32.3499 32.5794 32.4036L31.9692 33.8628L31.0515 35.9221C31.0515 35.9221 30.7635 36.6298 30.6903 36.7859C30.661 36.8494 30.6854 36.8835 30.7196 36.9079C30.7879 36.947 30.8807 36.9128 30.9099 36.8396L31.6471 35.2145C31.6471 35.2145 32.6136 33.2576 32.7942 32.8477C32.8137 32.7989 32.8382 32.755 32.8528 32.7159C32.9309 32.5549 33.1262 32.4915 33.2873 32.5695L35.3033 33.57L38.1005 35.0291C38.1005 35.0291 40.0238 36.3418 40.3753 36.4882C40.7267 36.6346 40.9659 36.1808 41.127 36.0637C41.2881 35.9465 41.2198 36.1222 41.5761 36.2735C41.9325 36.4248 41.9227 36.2589 41.952 36.1369C41.9813 36.0149 41.8251 35.9905 41.5517 35.7318C41.3662 35.5561 41.4199 35.2633 41.4785 35.0974C41.498 35.0291 41.581 35.0047 41.6347 35.0437C41.8007 35.156 42.0936 35.3512 42.1229 35.278C42.1619 35.1804 42.1863 35.1999 42.3572 35.1267C42.5427 35.0486 42.4158 34.9461 42.3913 34.7168ZM21.0004 29.6464L20.7954 29.6708C20.7368 29.6757 20.7075 29.6025 20.7514 29.5683L22.1964 28.4068L24.5102 26.5719L26.6923 24.8395L27.3855 24.1953C27.5514 24.0392 27.7516 23.9318 27.9713 23.8733L28.2934 23.7903C28.3618 23.7708 28.4155 23.8537 28.3667 23.9074L27.8785 24.3613L25.7111 26.2645L23.3777 28.1092L21.6545 29.3975C21.4593 29.5341 21.2347 29.622 21.0004 29.6464ZM33.8486 29.6366L33.7022 29.6659C33.6143 29.6805 33.546 29.5878 33.5899 29.5097L35.3277 26.2938C35.3814 26.1913 35.5132 26.1669 35.6011 26.245L35.6158 26.2547C35.7622 26.3816 35.8013 26.5963 35.7085 26.772L34.3807 29.2511C34.2684 29.4512 34.0781 29.5927 33.8486 29.6366ZM34.7029 29.4317C34.615 29.4512 34.5467 29.3585 34.5906 29.2804L35.8989 26.9038C36.0112 26.6988 36.2845 26.6598 36.4505 26.8257L38.4471 28.8216C38.6033 28.9778 38.4812 29.2462 38.2616 29.2316C37.4415 29.173 35.9916 29.134 34.7029 29.4317Z" fill="black"/>
</g>
</svg>
